<?xml version="1.0"?>
<svg xmlns="http://www.w3.org/2000/svg" xmlns:xlink="http://www.w3.org/1999/xlink" xmlns:svgjs="http://svgjs.com/svgjs" version="1.1" width="512" height="512" x="0" y="0" viewBox="0 0 512.00001 512" style="enable-background:new 0 0 512 512" xml:space="preserve" class=""><g><path xmlns="http://www.w3.org/2000/svg" d="m160.886719 0-101.191407 162.46875 76.8125 51.828125 93.132813-3.976563 2.027344-90.542968zm0 0" fill="#ffcccc" data-original="#9bfcff" class=""/><path xmlns="http://www.w3.org/2000/svg" d="m229.640625 210.320312-169.945313-47.851562 90.988282 335.613281 29.941406 12.953125h76.652344l12.28125-192.921875zm0 0" fill="#eeaaaa" data-original="#76e2f8" class=""/><path xmlns="http://www.w3.org/2000/svg" d="m287.425781 144.347656-57.785156 65.972656 27.636719 300.714844 78.710937-60.113281 26.980469-323.734375zm0 0" fill="#cc4444" data-original="#28c7f7" class=""/><path xmlns="http://www.w3.org/2000/svg" d="m229.640625 210.320312 133.328125-83.132812-202.082031-127.1875zm0 0" fill="#eeaaaa" data-original="#76e2f8" class=""/><path xmlns="http://www.w3.org/2000/svg" d="m180.625 305.152344-67.21875 13.019531-7.640625 73.257813-29.941406 50.859374 29.941406 68.746094h74.859375zm0 0" fill="#cc4444" data-original="#28c7f7" class=""/><path xmlns="http://www.w3.org/2000/svg" d="m0 344.816406 65.691406 166.21875h40.074219v-119.605468l-46.070313-50.246094zm0 0" fill="#eeaaaa" data-original="#76e2f8" class=""/><path xmlns="http://www.w3.org/2000/svg" d="m0 344.816406 105.765625 46.613282 74.859375-86.277344-143.488281-71.746094zm0 0" fill="#ffcccc" data-original="#9bfcff" class=""/><path xmlns="http://www.w3.org/2000/svg" d="m512 380.492188-58.667969-42.210938-58.664062 17.675781-67.910157 78.222657-6.394531 76.855468h63.089844zm0 0" fill="#cc4444" data-original="#28c7f7" class=""/><path xmlns="http://www.w3.org/2000/svg" d="m394.667969 355.957031 117.332031 24.535157v-205.042969l-93.226562 97.355469zm0 0" fill="#eeaaaa" data-original="#76e2f8" class=""/><path xmlns="http://www.w3.org/2000/svg" d="m512 175.449219-146.078125 36.523437-13.976563 79.976563 42.722657 64.007812zm0 0" fill="#ffcccc" data-original="#9bfcff" class=""/><path xmlns="http://www.w3.org/2000/svg" d="m365.921875 211.972656-108.644531 299.0625h63.085937l74.304688-155.078125zm0 0" fill="#eeaaaa" data-original="#76e2f8" class=""/></g></svg>
