<svg id="Smooth" enable-background="new 0 0 128 128" height="512" viewBox="0 0 128 128" width="512" xmlns="http://www.w3.org/2000/svg" xmlns:xlink="http://www.w3.org/1999/xlink"><linearGradient id="lg1"><stop offset="0" stop-color="#badaf0"/><stop offset="1" stop-color="#9ecdef"/></linearGradient><linearGradient id="SVGID_1_" gradientUnits="userSpaceOnUse" x1="24.35" x2="27.6" xlink:href="#lg1" y1="85.429" y2="66.179"/><linearGradient id="SVGID_2_" gradientTransform="matrix(-1 0 0 1 36 0)" gradientUnits="userSpaceOnUse" x1="-65.101" x2="-61.851" xlink:href="#lg1" y1="70.327" y2="51.077"/><linearGradient id="SVGID_3_" gradientUnits="userSpaceOnUse" x1="-40.896" x2="1.371" xlink:href="#lg1" y1="107.688" y2="110.131"/><linearGradient id="lg2"><stop offset="0" stop-color="#f6cfbe"/><stop offset="1" stop-color="#edad99"/></linearGradient><linearGradient id="SVGID_4_" gradientUnits="userSpaceOnUse" x1="64" x2="64" xlink:href="#lg2" y1="105.833" y2="95.333"/><linearGradient id="SVGID_5_" gradientUnits="userSpaceOnUse" x1="82.96" x2="98.46" xlink:href="#lg1" y1="120.864" y2="123.614"/><linearGradient id="lg3"><stop offset=".1197" stop-color="#9fc9f1"/><stop offset="1" stop-color="#65b4e2"/></linearGradient><linearGradient id="SVGID_6_" gradientUnits="userSpaceOnUse" x1="55" x2="55" xlink:href="#lg3" y1="87.167" y2="128.194"/><linearGradient id="SVGID_7_" gradientTransform="matrix(-1 0 0 1 110 0)" gradientUnits="userSpaceOnUse" x1="37" x2="37" xlink:href="#lg3" y1="87.167" y2="128.194"/><linearGradient id="SVGID_8_" gradientUnits="userSpaceOnUse" x1="29.959" x2="5.126" y1="10.887" y2="6.553"><stop offset=".0399" stop-color="#fb9e4b"/><stop offset=".8094" stop-color="#f37e3e"/></linearGradient><linearGradient id="SVGID_9_" gradientUnits="userSpaceOnUse" x1="60.948" x2="62.615" y1="2.517" y2="25.184"><stop offset="0" stop-color="#f5a519"/><stop offset=".9973" stop-color="#ffb054"/></linearGradient><linearGradient id="SVGID_10_" gradientUnits="userSpaceOnUse" x1="93" x2="93" xlink:href="#lg2" y1="35.667" y2="84.341"/><linearGradient id="SVGID_11_" gradientUnits="userSpaceOnUse" x1="35" x2="35" xlink:href="#lg2" y1="35.667" y2="84.341"/><linearGradient id="SVGID_12_" gradientUnits="userSpaceOnUse" x1="64" x2="64" xlink:href="#lg2" y1="92.655" y2="124.65"/><linearGradient id="lg4"><stop offset="0" stop-color="#92634d"/><stop offset="1" stop-color="#92634d"/></linearGradient><linearGradient id="SVGID_13_" gradientUnits="userSpaceOnUse" x1="64" x2="64" xlink:href="#lg4" y1="-110.333" y2="41.376"/><linearGradient id="SVGID_14_" gradientUnits="userSpaceOnUse" x1="65.567" x2="61.567" y1="159.274" y2="19.024"><stop offset="0" stop-color="#50a7d1"/><stop offset="1" stop-color="#198cc3"/></linearGradient><linearGradient id="lg5"><stop offset="0" stop-color="#e2dcca"/><stop offset=".6667" stop-color="#f4eadd"/></linearGradient><linearGradient id="SVGID_15_" gradientUnits="userSpaceOnUse" x1="68.263" x2="72.847" xlink:href="#lg5" y1="114.039" y2="114.08"/><linearGradient id="SVGID_16_" gradientUnits="userSpaceOnUse" x1="68.227" x2="72.81" xlink:href="#lg5" y1="118.038" y2="118.08"/><linearGradient id="lg6"><stop offset="0" stop-color="#957e7f"/><stop offset="1" stop-color="#373638"/></linearGradient><linearGradient id="SVGID_17_" gradientUnits="userSpaceOnUse" x1="51" x2="51" xlink:href="#lg6" y1="17.5" y2="89.5"/><linearGradient id="SVGID_18_" gradientUnits="userSpaceOnUse" x1="77" x2="77" xlink:href="#lg6" y1="17.5" y2="89.5"/><linearGradient id="SVGID_19_" gradientUnits="userSpaceOnUse" x1="51" x2="51" xlink:href="#lg6" y1="41.994" y2="61.243"/><linearGradient id="SVGID_20_" gradientUnits="userSpaceOnUse" x1="77" x2="77" xlink:href="#lg6" y1="41.994" y2="61.243"/><linearGradient id="SVGID_22_" gradientUnits="userSpaceOnUse" x1="64.01" x2="64.01" xlink:href="#lg4" y1="-110.333" y2="41.376"/><linearGradient id="SVGID_23_" gradientUnits="userSpaceOnUse" x1="64" x2="64" y1="-32" y2="84.594"><stop offset=".0487" stop-color="#f37e3e"/><stop offset="1" stop-color="#ea5c43"/></linearGradient><g><g><path d="m21 108s-8 4-13 18h19l1-18z" fill="url(#SVGID_1_)"/><path d="m107 108s8 4 13 18h-19l-1-18z" fill="url(#SVGID_2_)"/><path d="m76 100c-2.59 1.775-6.834 2.996-12 3-5.166-.004-9.41-1.225-12-3-7.561.971-23 3-31 8l5 18h75l6-18c-8-5-23.439-7.029-31-8z" fill="url(#SVGID_3_)"/><path d="m52 88h24v21h-24z" fill="url(#SVGID_4_)"/><g><path d="m60 109h8v17h-8z" fill="url(#SVGID_5_)"/></g><g><path d="m46 104c0 5.203 4.944 12.959 6 14l12-9c-9.561-1.051-12.004-9.919-12.004-12 0 0-5.996.67-5.996 7z" fill="url(#SVGID_6_)"/><path d="m82 104c0 5.203-4.944 12.959-6 14l-12-9c9.561-1.051 12.004-9.919 12.004-12 0 0 5.996.67 5.996 7z" fill="url(#SVGID_7_)"/></g><g><path d="m83 6c-1.602-1.491-3.2-2.365-5-3-3.074-1.085-9.531-1.01-14-1-4.469-.01-10.926-.085-14 1-1.8.635-3.398 1.509-5 3-4.009 3.733-8.78 12.295-11 22h60c-2.22-9.705-6.991-18.267-11-22z" fill="url(#SVGID_8_)"/><path d="m121 44.02c0 11.055-25.521 20.018-57 20.018-31.481 0-57-8.963-57-20.018 0-11.057 25.519-20.02 57-20.02 31.479 0 57 8.963 57 20.02z" fill="url(#SVGID_9_)"/></g><g><path d="m100 64.857c0 4.418-3.134 9.143-7 9.143s-7-4.725-7-9.143 3.134-6.857 7-6.857 7 2.439 7 6.857z" fill="url(#SVGID_10_)"/><path d="m42 64.857c0 4.418-3.134 9.143-7 9.143s-7-4.725-7-9.143 3.134-6.857 7-6.857 7 2.439 7 6.857z" fill="url(#SVGID_11_)"/></g><path d="m89 44h-50c-2.238.543-4 2.697-4 5v16.007c0 16.993 13 29.993 29 29.993s29-13 29-29.993v-16.007c0-2.31-1.753-4.463-4-5z" fill="url(#SVGID_12_)"/><path d="m37.099 39.969c-2.485 2.742-4.099 6.268-4.099 10.029 0 7.309 2 15.002 2 15.002 1.241-6.824 3-14 8-17.886 2.162-1.68 4.312-3.52 7-3 4.166.806 9.213 2.036 14 2 4.787.036 9.821-1.124 13.987-1.93 2.688-.52 5.415.707 7.013 2.93 2.809 3.906 6.759 11.062 8 17.886 0 0 2-7.693 2-15.002 0-3.76-1.614-7.286-4.098-10.028-16.995-5.316-37.579-5.27-53.803-.001z" fill="url(#SVGID_13_)"/><path d="m98.419 104.325c-2.637-.817-5.431-1.496-8.195-2.065l-4.224 17.74c-.345 1.321-1.635 2-3 2h-19-19c-1.365 0-2.655-.679-3-2l-4.224-17.74c-2.764.568-5.559 1.248-8.195 2.065l3.419 13.675c.644 2.577 1 5.344 1 8h30 30c0-2.656.356-5.423 1-8z" fill="url(#SVGID_14_)"/><circle cx="64" cy="114" fill="url(#SVGID_15_)" r="1"/><circle cx="64" cy="118" fill="url(#SVGID_16_)" r="1"/><g><g><ellipse cx="51" cy="64" fill="url(#SVGID_17_)" rx="3" ry="4"/><ellipse cx="77" cy="64" fill="url(#SVGID_18_)" rx="3" ry="4"/><g><path d="m56.999 54.994c-.181 0-.363-.049-.528-.151-5.559-3.461-9.18-1.133-10.726-.138l-.21.135c-.468.295-1.085.155-1.38-.311-.295-.467-.156-1.084.311-1.38l.198-.126c1.704-1.097 6.234-4.007 12.865.123.469.292.612.909.32 1.377-.19.304-.516.471-.85.471z" fill="url(#SVGID_19_)"/></g><g><path d="m71.001 54.994c-.334 0-.66-.167-.85-.471-.292-.469-.149-1.086.32-1.377 6.632-4.132 11.161-1.219 12.866-.123l.197.126c.467.295.605.913.311 1.38-.295.467-.913.606-1.38.311l-.21-.134c-1.545-.994-5.168-3.323-10.727.138-.164.101-.346.15-.527.15z" fill="url(#SVGID_20_)"/></g></g></g></g><path d="m64 80c1.417 1.585 4.155 2.003 7 2.003 7 0 10-6 10-6-5.812.688-6.8-.019-10-2-2.67-1.653-4.773-1.229-7 .997-2.227-2.227-4.33-2.656-7-1.003-3.2 1.981-4.188 2.688-10 2 0 0 3 6 10 6 2.845 0 5.583-.412 7-1.997z" fill="url(#SVGID_13_)"/><g><path d="m64 95c13.363 0 24.648-9.072 28-21.961-3.095 3.095-8.312 10.753-18.979 12.961-4.177.865-5.021-1-9.021-1s-4.823 1.865-9 1c-10.667-2.208-15.884-9.866-18.979-12.961 3.352 12.889 14.616 21.961 27.979 21.961z" fill="url(#SVGID_22_)"/></g><path d="m91.805 20.726c-1.177-3.139-2.565-6.013-4.019-8.46-15.814-3.021-31.758-3.021-47.572 0-1.454 2.448-2.842 5.321-4.019 8.46 18.551-3.638 37.227-3.632 55.61 0z" fill="url(#SVGID_23_)"/></g></svg>