<?xml version="1.0" encoding="iso-8859-1"?>
<!-- Generator: Adobe Illustrator 19.0.0, SVG Export Plug-In . SVG Version: 6.00 Build 0)  -->
<svg version="1.1" id="Capa_1" xmlns="http://www.w3.org/2000/svg" xmlns:xlink="http://www.w3.org/1999/xlink" x="0px" y="0px"
	 viewBox="0 0 512 512" style="enable-background:new 0 0 512 512;" xml:space="preserve">
<path style="fill:#F6CE6E;" d="M223.908,396.815c30.023-30.023,30.023-78.7,0-108.723c-30.023-30.023-78.7-30.023-108.723,0
	s-84.54,133.217-54.517,163.24C90.691,481.355,193.885,426.838,223.908,396.815z"/>
<path style="fill:#EB6E8B;" d="M196.58,188.273c-49.664-49.664-132.53-27.556-194.664,49.963c-2.801,3.495-2.493,8.552,0.674,11.719
	l7.414,7.414c3.029,3.029,7.795,3.451,11.296,0.984c19.08-13.449,80.261-50.572,122.794-8.039L196.58,188.273z"/>
<path style="opacity:0.1;enable-background:new    ;" d="M196.58,188.273c-11.011-11.011-23.656-18.486-37.343-22.619
	c-16.258,19.415-32.421,40.908-47.911,64.645c-0.34,0.522-0.664,1.051-0.977,1.584c11.772,2.375,23.319,8.006,33.745,18.432
	L196.58,188.273z"/>
<path style="fill:#EB6E8B;" d="M323.727,315.42c49.664,49.664,27.556,132.53-49.963,194.664c-3.495,2.801-8.552,2.493-11.719-0.674
	l-7.414-7.414c-3.029-3.029-3.451-7.795-0.984-11.296c13.449-19.081,50.572-80.261,8.039-122.794L323.727,315.42z"/>
<path style="opacity:0.1;enable-background:new    ;" d="M323.727,315.42c11.011,11.011,18.486,23.656,22.62,37.343
	c-19.415,16.258-40.909,32.421-64.645,47.911c-0.522,0.341-1.051,0.664-1.584,0.977c-2.375-11.772-8.006-23.319-18.432-33.745
	L323.727,315.42z"/>
<path style="fill:#7ED3E9;" d="M248.798,379.704c5.496,5.496,14.086,6.355,20.595,2.107
	C460.892,256.844,545.241,57.125,500.058,11.942S255.156,51.108,130.189,242.607c-4.248,6.51-3.389,15.099,2.107,20.595
	L248.798,379.704z"/>
<circle style="fill:#6A95E6;" cx="385.95" cy="126.05" r="50.1"/>
<path style="opacity:0.1;enable-background:new    ;" d="M421.373,90.627c-19.566-19.566-51.288-19.566-70.854,0
	s-19.566,51.289,0,70.855c7.344,7.344,16.402,11.931,25.886,13.762c-3.997-1.992-7.751-4.642-11.083-7.975
	c-16.572-16.572-16.572-43.442,0-60.014c16.572-16.573,43.442-16.573,60.014,0c5.189,5.189,8.753,11.388,10.692,17.964
	C435.82,112.676,430.944,100.197,421.373,90.627z"/>
<path style="fill:#FFFFFF;" d="M385.946,183.629c-14.75,0-29.501-5.615-40.73-16.844c-10.879-10.88-16.871-25.346-16.871-40.732
	s5.992-29.851,16.871-40.73s25.344-16.871,40.73-16.871s29.851,5.992,40.73,16.871c10.879,10.88,16.871,25.345,16.871,40.73
	c0,15.386-5.992,29.852-16.871,40.732l0,0C415.447,178.014,400.697,183.629,385.946,183.629z M385.946,83.452
	c-11.379,0-22.078,4.432-30.124,12.479c-8.046,8.046-12.478,18.744-12.478,30.123c0,11.38,4.431,22.078,12.478,30.124
	c16.61,16.611,43.638,16.611,60.248,0c8.046-8.046,12.478-18.744,12.478-30.124c0-11.379-4.431-22.077-12.478-30.123
	C408.024,87.884,397.326,83.452,385.946,83.452z M421.374,161.481h0.01H421.374z"/>
<path style="fill:#3F4C58;" d="M159.266,201.611c-10.067,13.097-19.814,26.799-29.143,41.099c-4.222,6.471-3.289,15.03,2.175,20.494
	l116.499,116.499c5.464,5.464,14.022,6.397,20.494,2.175c14.3-9.329,28.002-19.076,41.099-29.143L159.266,201.611z"/>
<g style="opacity:0.2;">
	<rect x="159.804" y="222.609" transform="matrix(-0.7071 -0.7071 0.7071 -0.7071 106.0582 551.7682)" width="15" height="62.619"/>
	<rect x="250.604" y="313.393" transform="matrix(-0.7071 -0.7071 0.7071 -0.7071 196.8694 770.9518)" width="15" height="62.619"/>
</g>
<path style="fill:#EB6E8B;" d="M500.058,11.942c-17.299-17.298-57.249-15.61-106.983,3.808L496.25,118.925
	C515.669,69.191,517.357,29.241,500.058,11.942z"/>
<path style="opacity:0.1;enable-background:new    ;" d="M507.257,22.72c-7.213,79.232-91.534,223.69-242.097,321.943
	c-6.509,4.248-15.099,3.389-20.595-2.107L135.947,233.938c-1.936,2.865-3.856,5.754-5.758,8.669
	c-4.248,6.51-3.389,15.099,2.107,20.595l116.502,116.502c5.496,5.496,14.086,6.355,20.595,2.107
	C448.38,265.009,533.756,82.911,507.257,22.72z"/>
<path style="fill:#EB6E8B;" d="M267.148,258.841l-13.989-13.989c-4.546-4.546-11.917-4.546-16.463,0L125.323,356.225
	c-4.546,4.546-4.546,11.917,0,16.463l13.989,13.989c4.546,4.546,11.917,4.546,16.463,0l111.373-111.373
	C271.694,270.758,271.694,263.387,267.148,258.841z"/>
<g>
</g>
<g>
</g>
<g>
</g>
<g>
</g>
<g>
</g>
<g>
</g>
<g>
</g>
<g>
</g>
<g>
</g>
<g>
</g>
<g>
</g>
<g>
</g>
<g>
</g>
<g>
</g>
<g>
</g>
</svg>
