<?xml version="1.0"?>
<svg xmlns="http://www.w3.org/2000/svg" xmlns:xlink="http://www.w3.org/1999/xlink" xmlns:svgjs="http://svgjs.com/svgjs" version="1.1" width="512" height="512" x="0" y="0" viewBox="0 0 512 512" style="enable-background:new 0 0 512 512" xml:space="preserve" class=""><g><g xmlns="http://www.w3.org/2000/svg"><path d="m136.05 75.5v26.843c0 11.072 1.148 21.928 3.344 32.438l120.713 53.839 102.124-21.65c8.885-19.865 13.769-41.78 13.769-64.615v-26.855z" fill="#f3f5f9" data-original="#f3f5f9"/><path d="m376 75.5v26.86c0 22.83-4.88 44.75-13.77 64.61l-102.12 21.65-4.11-1.83v-111.29z" fill="#d6e1f1" data-original="#d6e1f1" class=""/><path d="m372.413 376.249c-12.484-58.031-56.945-105.382-116.363-120.249l-.105.026c-59.427 14.851-103.903 62.194-116.4 120.225l116.455 11.749z" fill="#f3f5f9" data-original="#f3f5f9"/><path d="m372.41 376.25-116.41 11.75v-131.98l.05-.02c59.42 14.87 103.88 62.22 116.36 120.25z" fill="#d6e1f1" data-original="#d6e1f1" class=""/><path d="m106.05 25v50.5c0 8.284 6.716 15 15 15h269.9c8.284 0 15-6.716 15-15v-50.5z" fill="#d8b27e" data-original="#67548c" class=""/><path d="m405.95 25v50.5c0 8.28-6.72 15-15 15h-134.95v-65.5z" fill="#d8b27e" data-original="#544473" class=""/><path d="m372.41 376.25h-66.41c-13.961-13.961-23.543-23.543-35-35v-89.787c28.787-10.289 53.352-28.445 71.46-51.643 7.87-10.08 14.52-21.11 19.77-32.85-88.67-1.73-123.19-30.48-222.83-32.19 11.164 53.469 49.447 97.983 101.6 116.642v89.828l-35 35h-66.46c-2.32 10.8-3.54 21.98-3.54 33.38v26.87h239.95v-26.9c0-11.39-1.22-22.56-3.54-33.35z" fill="#ffdf40" data-original="#ffdf40" class=""/><path d="m375.95 409.6v26.9h-119.95v-285.38c31.79 7.53 62.39 14.99 106.23 15.85-5.25 11.74-11.9 22.77-19.77 32.85-18.11 23.2-42.67 41.35-71.46 51.64v89.79l35 35h66.41c2.32 10.79 3.54 21.96 3.54 33.35z" fill="#ffbe40" data-original="#ffbe40" class=""/><path d="m405.95 487v-50.5c0-8.284-6.716-15-15-15h-269.9c-8.284 0-15 6.716-15 15v50.5z" fill="#d8b27e" data-original="#67548c" class=""/><path d="m405.95 436.5v50.5h-149.95v-65.5h134.95c8.28 0 15 6.72 15 15z" fill="#d8b27e" data-original="#544473" class=""/><path d="m91.05 482c-8.284 0-15 6.716-15 15s6.716 15 15 15h329.9c8.284 0 15-6.716 15-15s-6.716-15-15-15z" fill="#d8b27e" data-original="#544473" class=""/><path d="m435.95 497c0 8.28-6.72 15-15 15h-164.95v-30h164.95c8.28 0 15 6.72 15 15z" fill="#d8b27e" data-original="#413559" class=""/><path d="m420.95 30c8.284 0 15-6.716 15-15s-6.716-15-15-15h-329.9c-8.284 0-15 6.716-15 15s6.716 15 15 15z" fill="#d8b27e" data-original="#544473" class=""/><path d="m435.95 15c0 8.28-6.72 15-15 15h-164.95v-30h164.95c8.28 0 15 6.72 15 15z" fill="#d8b27e" data-original="#413559" class=""/></g></g></svg>
