<?xml version="1.0"?>
<svg xmlns="http://www.w3.org/2000/svg" xmlns:xlink="http://www.w3.org/1999/xlink" xmlns:svgjs="http://svgjs.com/svgjs" version="1.1" width="512" height="512" x="0" y="0" viewBox="0 0 53 53" style="enable-background:new 0 0 512 512" xml:space="preserve" class=""><g><g xmlns="http://www.w3.org/2000/svg" id="_x34_3"><g><path d="m50.4406815 38.5888519v1.2299805l-7.8900147 4.5500488-.829956-.4800415v.960022l-7.8900147 4.5499878-31.2399893-18.1500244-.0100097-1.2299805 2.7700195-2.3999634-.0100098-3.5-2.7800293-1.6100464v-1.2099609l4.7000122-2.710022-.8599853-.5-.0100098-1.2199707 2.7700195-2.4000244-.0100097-3.5-2.7800293-1.6199951v-1.2000122l7.8900146-4.5499873 31.2399893 18.1599726.0100098 1.2000122-2.7600098 2.4100342v.0499878l7.6600342 4.4500122.0100098 1.209961-2.7600098 2.4100341.0100098 3.5z" fill="#a9bef2" data-original="#c9cee2" class=""/></g><g><g><g><g enable-background="new"><g><g><path d="m47.679966 39.3898354-31.2465096-18.1584855 2.7573509-.7992267 31.2465096 18.1584873z" fill="#c3d7ff" data-original="#e3e7f0" class=""/></g></g><g><g><path d="m42.5528946 44.3698502-31.2465077-18.1584855-.0034732-1.2251644 31.2465095 18.1584874z" fill="#90a8cf" data-original="#b0b8cf" class=""/></g></g><g><g><path d="m42.5494232 43.1446877-31.2465095-18.1584874 2.7622623-2.3983497 31.2465077 18.1584873z" fill="#c3d7ff" data-original="#e3e7f0" class=""/></g></g><g><g><path d="m45.3116837 40.7463379-31.2465077-18.1584873-.0167208-5.898037 31.2465086 18.1584873z" fill="#90a8cf" data-original="#b0b8cf" class=""/></g></g><g><g><path d="m42.5281219 35.6312828-31.2465086-18.1584873-.0034122-1.2033997 31.2465105 18.1584873z" fill="#8ea9d9" data-original="#9ea9c9" class=""/></g></g><g><g><path d="m42.5247116 34.4278831-31.2465105-18.1584873 7.8878927-4.5540781 31.2465077 18.1584864z" fill="#c3d7ff" data-original="#e3e7f0" class=""/></g></g><g><g><path d="m50.4126015 29.8738041.0034141 1.2034016-2.7527733 2.414669.0167237 5.8979607 2.7573509-.7992249.0034714 1.2251625-7.8878937 4.5540772-.0034714-1.2251625 2.7622605-2.3983498-.0167199-5.898037-2.7668419.7829819-.0034103-1.2033997z" fill="#a9bef2" data-original="#c9cee2" class=""/></g></g></g></g><g><g enable-background="new"><g><g><path d="m38.9609756 44.423748-31.2465095-18.1584854 2.75735-.7992287 31.2465105 18.1584854z" fill="#c3d7ff" data-original="#e3e7f0" class=""/></g></g><g><g><path d="m33.8339043 49.4037628-31.2465074-18.1584873-.0034733-1.2251644 31.2465093 18.1584854z" fill="#90a8cf" data-original="#b0b8cf" class=""/></g></g><g><g><path d="m33.8304329 48.1785965-31.2465093-18.1584854 2.7622626-2.3983479 31.2465071 18.1584873z" fill="#c3d7ff" data-original="#e3e7f0" class=""/></g></g><g><g><path d="m36.5926933 45.7802505-31.2465071-18.1584873-.0167208-5.8980369 31.2465081 18.1584873z" fill="#90a8cf" data-original="#b0b8cf" class=""/></g></g><g><g><path d="m33.8091316 40.6651955-31.2465086-18.1584874-.0034115-1.2034015 31.2465098 18.1584854z" fill="#8ea9d9" data-original="#9ea9c9" class=""/></g></g><g><g><path d="m33.8057213 39.461792-31.2465098-18.1584854 7.887893-4.5540772 31.2465105 18.1584854z" fill="#c3d7ff" data-original="#e3e7f0" class=""/></g></g><g><g><path d="m41.693615 34.9077148.0034103 1.2034035-2.7527695 2.4146652.0167198 5.8979645 2.757351-.7992287.0034713 1.2251664-7.8878936 4.5540771-.0034714-1.2251663 2.7622604-2.398346-.0167198-5.8980369-2.7668419.7829819-.0034103-1.2034035z" fill="#a9bef2" data-original="#c9cee2" class=""/></g></g></g></g><g><g enable-background="new"><g><g><path d="m42.7718124 31.2707558-31.2465086-18.1584864 2.75735-.7992268 31.2465096 18.1584864z" fill="#c3d7ff" data-original="#e3e7f0" class=""/></g></g><g><g><path d="m37.6447449 36.2507706-31.2465105-18.1584874-.0034733-1.2251644 31.2465086 18.1584854z" fill="#90a8cf" data-original="#b0b8cf" class=""/></g></g><g><g><path d="m37.6412697 35.0256042-31.2465086-18.1584854 2.7622623-2.3983478 31.2465105 18.1584873z" fill="#c3d7ff" data-original="#e3e7f0" class=""/></g></g><g><g><path d="m40.4035339 32.6272583-31.2465105-18.1584873-.0167207-5.8980379 31.2465076 18.1584863z" fill="#90a8cf" data-original="#b0b8cf" class=""/></g></g><g><g><path d="m37.6199684 27.5122013-31.2465076-18.1584864-.0034118-1.2034006 31.2465091 18.1584874z" fill="#8ea9d9" data-original="#9ea9c9" class=""/></g></g><g><g><path d="m37.6165581 26.3088017-31.2465091-18.1584874 7.8878932-4.5540766 31.2465096 18.1584868z" fill="#c3d7ff" data-original="#e3e7f0" class=""/></g></g><g><g><path d="m37.6165581 26.3088017-31.2465091-18.1584874 7.8878932-4.5540766 31.2465096 18.1584868z" fill="#c3d7ff" data-original="#e3e7f0" class=""/></g></g><g><g><path d="m45.5044518 21.7547245.0034103 1.2033997-2.7527695 2.414669.0167198 5.8979626 2.757351-.7992268.0034713 1.2251644-7.8878898 4.5540772-.0034752-1.2251664 2.7622642-2.3983459-.0167236-5.8980389-2.7668419.7829819-.0034103-1.2033996z" fill="#a9bef2" data-original="#c9cee2" class=""/></g></g></g></g></g></g></g></g></svg>
