<svg height="469pt" viewBox="0 0 540 469.33376" width="540pt" xmlns="http://www.w3.org/2000/svg"><path d="m106.832031 128c0 42.667969-21.332031 85.332031-64 106.667969 0 0 42.667969 106.664062 192 85.332031v-192zm0 0" fill="#e0e5e8"/><g fill="#c4ced3"><path d="m103.707031 274.207031-15.09375-15.070312c.199219-.199219 20.5-20.898438 40.679688-61.242188l19.082031 9.542969c-21.855469 43.707031-43.738281 65.855469-44.667969 66.769531zm0 0"/><path d="m146.375 295.542969-15.09375-15.074219c.199219-.199219 20.5-20.894531 40.675781-61.238281l19.085938 9.539062c-21.855469 43.710938-43.742188 65.855469-44.667969 66.773438zm0 0"/><path d="m362.832031 128c0 42.667969 21.335938 85.332031 64 106.667969 0 0-42.664062 106.664062-192 85.332031v-192zm0 0"/></g><path d="m365.957031 274.207031c-.925781-.914062-22.8125-23.0625-44.664062-66.769531l19.082031-9.542969c20.175781 40.34375 40.480469 61.042969 40.675781 61.242188zm0 0" fill="#a2b2ba"/><path d="m323.292969 295.542969c-.929688-.917969-22.8125-23.0625-44.667969-66.773438l19.082031-9.539062c20.179688 40.34375 40.480469 61.039062 40.679688 61.238281zm0 0" fill="#a2b2ba"/><path d="m341.5 170.667969c11.78125 0 21.332031 9.550781 21.332031 21.332031v21.332031c0 11.785157-9.550781 21.335938-21.332031 21.335938s-21.332031-9.550781-21.332031-21.335938v-21.332031c0-11.78125 9.550781-21.332031 21.332031-21.332031zm0 0" fill="#cb7956"/><path d="m128.167969 170.667969c11.78125 0 21.332031 9.550781 21.332031 21.332031v21.332031c0 11.785157-9.550781 21.335938-21.332031 21.335938s-21.335938-9.550781-21.335938-21.335938v-21.332031c0-11.78125 9.554688-21.332031 21.335938-21.332031zm0 0" fill="#e29971"/><path d="m170.832031 256v64c0 11.78125-9.550781 21.332031-21.332031 21.332031h-64c-47.128906 0-85.332031 38.207031-85.332031 85.335938v42.664062h469.332031v-42.664062c0-47.128907-38.203125-85.335938-85.332031-85.335938h-64c-11.78125 0-21.335938-9.550781-21.335938-21.332031v-64zm0 0" fill="#e29971"/><path d="m320.167969 341.332031c-11.78125 0-21.335938-9.550781-21.335938-21.332031v-64h-64v106.667969h-21.332031v21.332031c0 11.78125 9.550781 21.332031 21.332031 21.332031 11.785157 0 21.335938-9.550781 21.335938-21.332031h85.332031v-42.667969zm0 0" fill="#cb7956"/><path d="m213.5 405.332031v64h256v-42.664062c0-47.128907-38.203125-85.335938-85.332031-85.335938h-64l-21.335938-21.332031zm0 0" fill="#cb393f"/><path d="m341.5 341.332031c0 47.128907-38.203125 85.335938-85.332031 85.335938h-21.335938v-42.667969l42.667969-42.667969zm0 0" fill="#c6262d"/><path d="m213.5 405.332031h42.667969c35.34375 0 64-28.652343 64-64l-21.335938-21.332031zm0 0" fill="#cb393f"/><path d="m170.832031 320 21.335938 21.332031 64 64v64h-256v-42.664062c0-47.128907 38.203125-85.335938 85.332031-85.335938h64zm0 0" fill="#ce464d"/><path d="m149.5 320h21.332031l-21.332031 21.332031v128h-149.332031v-42.664062c0-47.128907 38.203125-85.335938 85.332031-85.335938h42.667969zm0 0" fill="#caecf6"/><path d="m298.832031 320 21.335938 21.332031v128h149.332031v-42.664062c0-47.128907-38.203125-85.335938-85.332031-85.335938h-42.667969l-21.332031-21.332031zm0 0" fill="#95daec"/><path d="m341.5 341.332031s85.332031 21.335938 106.667969 128h-106.667969zm0 0" fill="#72cee6"/><path d="m320.167969 320s64 21.332031 85.332031 85.332031l-42.667969 21.335938 42.667969 42.664062h-85.332031zm0 0" fill="#caecf6"/><path d="m149.5 320s-64 21.332031-85.332031 85.332031l42.664062 21.335938-42.664062 42.664062h85.332031zm0 0" fill="#e7f6fa"/><path d="m128.167969 362.667969 21.332031-21.335938v128h-21.332031zm0 0" fill="#b4e5f2"/><path d="m320.167969 341.332031 21.332031 21.335938v106.664062h-21.332031zm0 0" fill="#e7f6fa"/><path d="m42.832031 469.332031h-21.332031v-42.664062c.039062-35.332031 28.671875-63.960938 64-64v21.332031c-23.554688.023438-42.644531 19.113281-42.667969 42.667969zm0 0" fill="#e7f6fa"/><path d="m170.832031 320-21.332031 21.332031c0 47.128907 38.207031 85.335938 85.332031 85.335938h21.335938v-21.335938zm0 0" fill="#cb393f"/><path d="m234.832031 21.332031c58.910157 0 106.667969 47.757813 106.667969 106.667969v85.332031c0 58.910157-47.757812 106.667969-106.667969 106.667969-58.910156 0-106.664062-47.757812-106.664062-106.667969v-85.332031c0-58.910156 47.753906-106.667969 106.664062-106.667969zm0 0" fill="#edbda4"/><path d="m298.832031 43.148438v84.851562h-42.664062v21.332031h42.664062v42.667969c11.785157 0 21.335938 9.550781 21.335938 21.332031 0 11.785157-9.550781 21.335938-21.335938 21.335938h-64v64h21.335938v19.183593c49.660156-10.148437 85.324219-53.832031 85.332031-104.519531v-85.332031c0-34.785156-16.902344-65.378906-42.667969-84.851562zm0 0" fill="#e29971"/><path d="m213.5 202.667969c0 17.671875-14.328125 32-32 32s-32-14.328125-32-32c0-17.675781 14.328125-32 32-32s32 14.324219 32 32zm0 0" fill="#c4eaf5"/><path d="m320.167969 202.667969c0 17.671875-14.328125 32-32 32-17.675781 0-32-14.328125-32-32 0-17.675781 14.324219-32 32-32 17.671875 0 32 14.324219 32 32zm0 0" fill="#c4eaf5"/><path d="m213.5 213.332031v21.335938h42.667969v-64h42.664062v-21.335938h-64v64zm0 0" fill="#cb7956"/><path d="m277.5 170.667969h21.332031v21.332031h-21.332031zm0 0" fill="#4c2c1a"/><path d="m170.832031 170.667969h21.335938v21.332031h-21.335938zm0 0" fill="#4c2c1a"/><path d="m213.5 256h42.667969v21.332031h-42.667969zm0 0" fill="#ce464d"/><path d="m170.832031 128h64v21.332031h-64zm0 0" fill="#e29971"/><path d="m192.167969 85.332031h85.332031v21.335938h-85.332031zm0 0" fill="#e29971"/><path d="m170.832031 106.667969h128v21.332031h-128zm0 0" fill="#f5d9cb"/><path d="m192.167969 256h21.332031v42.667969h-21.332031zm0 0" fill="#e29971"/><path d="m256.167969 256h21.332031v42.667969h-21.332031zm0 0" fill="#cb7956"/><path d="m170.832031 320-21.332031 21.332031c0 35.347657 28.652344 64 64 64h42.667969zm0 0" fill="#d7686d"/><path d="m234.832031 437.332031c0 5.890625-4.773437 10.667969-10.664062 10.667969s-10.667969-4.777344-10.667969-10.667969 4.777344-10.664062 10.667969-10.664062 10.664062 4.773437 10.664062 10.664062zm0 0" fill="#c6262d"/><path d="m234.832031 426.667969h21.335938v42.664062h-21.335938zm0 0" fill="#d7686d"/><path d="m128.167969 192 21.332031-42.667969v-64h21.332031c0 35.347657 28.65625 64 64 64h37.632813c29.234375 0 55.960937 16.519531 69.035156 42.667969h21.332031v-64c0-70.691406-57.304687-128-128-128-70.691406 0-128 57.308594-128 128v64zm0 0" fill="#e0e5e8"/><path d="m170.832031 85.332031c0 35.347657 28.65625 64 64 64h37.632813c29.234375 0 55.960937 16.519531 69.035156 42.667969h21.332031v-64c.058594-45.75-24.339843-88.042969-63.96875-110.902344-39.632812-22.855468-88.457031-22.792968-128.03125.167969zm0 0" fill="#c4ced3"/><path d="m149.5 64h21.332031v21.332031h-21.332031zm0 0" fill="#e29971"/><path d="m323.292969 167.542969c-.0625-.054688-20.1875-18.210938-77.792969-18.210938-46.75 0-74.667969-23.925781-74.667969-64h21.335938c0 35.261719 29 42.667969 53.332031 42.667969 66.5 0 90.375 21.957031 92.875 24.457031zm0 0" fill="#a2b2ba"/><path d="m320.167969 96h-21.335938c0-36.9375-38.644531-53.332031-53.332031-53.332031h-32v-21.335938h32c26.800781 0 74.667969 24.949219 74.667969 74.667969zm0 0" fill="#e0e5e8"/><path d="m128.167969 85.332031h21.332031v64h-21.332031zm0 0" fill="#c4ced3"/></svg>