<svg id="Smooth" enable-background="new 0 0 128 128" height="512" viewBox="0 0 128 128" width="512" xmlns="http://www.w3.org/2000/svg" xmlns:xlink="http://www.w3.org/1999/xlink"><linearGradient id="lg1"><stop offset="0" stop-color="#198bc2"/><stop offset="1" stop-color="#126399"/></linearGradient><linearGradient id="SVGID_1_" gradientUnits="userSpaceOnUse" x1="7.179" x2="18.179" xlink:href="#lg1" y1="29.686" y2="169.686"/><linearGradient id="SVGID_2_" gradientUnits="userSpaceOnUse" x1="106.32" x2="117.32" xlink:href="#lg1" y1="21.896" y2="161.896"/><linearGradient id="SVGID_3_" gradientUnits="userSpaceOnUse" x1="-1.765" x2="19.55" xlink:href="#lg1" y1="87.276" y2="96.361"/><linearGradient id="lg2"><stop offset="0" stop-color="#f6cfbe"/><stop offset="1" stop-color="#edad99"/></linearGradient><linearGradient id="SVGID_4_" gradientUnits="userSpaceOnUse" x1="64" x2="64" xlink:href="#lg2" y1="105.833" y2="95.333"/><linearGradient id="SVGID_5_" gradientUnits="userSpaceOnUse" x1="93" x2="93" xlink:href="#lg2" y1="35.667" y2="84.341"/><linearGradient id="SVGID_6_" gradientUnits="userSpaceOnUse" x1="35" x2="35" xlink:href="#lg2" y1="35.667" y2="84.341"/><linearGradient id="SVGID_7_" gradientUnits="userSpaceOnUse" x1="64" x2="64" xlink:href="#lg2" y1="92.655" y2="124.65"/><linearGradient id="lg3"><stop offset="0" stop-color="#92634d"/><stop offset="1" stop-color="#92634d"/></linearGradient><linearGradient id="SVGID_8_" gradientUnits="userSpaceOnUse" x1="64" x2="64" xlink:href="#lg3" y1="-110.333" y2="41.376"/><linearGradient id="SVGID_9_" gradientUnits="userSpaceOnUse" x1="64.733" x2="64.483" y1="88.782" y2="98.407"><stop offset="0" stop-color="#50a6d0"/><stop offset="1" stop-color="#198bc2"/></linearGradient><linearGradient id="SVGID_10_" gradientUnits="userSpaceOnUse" x1="52.882" x2="58.132" xlink:href="#lg1" y1="58.605" y2="175.105"/><linearGradient id="SVGID_11_" gradientUnits="userSpaceOnUse" x1="70.855" x2="76.105" xlink:href="#lg1" y1="57.795" y2="174.295"/><linearGradient id="SVGID_12_" gradientUnits="userSpaceOnUse" x1="33.352" x2="39.352" xlink:href="#lg1" y1="103.146" y2="105.271"/><linearGradient id="SVGID_13_" gradientUnits="userSpaceOnUse" x1="32.093" x2="38.093" xlink:href="#lg1" y1="106.7" y2="108.825"/><linearGradient id="SVGID_14_" gradientUnits="userSpaceOnUse" x1="30.835" x2="36.835" xlink:href="#lg1" y1="110.254" y2="112.379"/><linearGradient id="lg4"><stop offset=".0399" stop-color="#fa9d4b"/><stop offset=".8094" stop-color="#f27e3e"/></linearGradient><linearGradient id="SVGID_15_" gradientUnits="userSpaceOnUse" x1="125.427" x2="150.827" xlink:href="#lg4" y1="-26.114" y2="-49.642"/><linearGradient id="SVGID_16_" gradientUnits="userSpaceOnUse" x1="61.725" x2="66.892" xlink:href="#lg4" y1="10.444" y2="82.111"/><linearGradient id="SVGID_17_" gradientUnits="userSpaceOnUse" x1="64.004" x2="64.004" y1="-750.987" y2="-127.87"><stop offset="0" stop-color="#f4a419"/><stop offset=".9973" stop-color="#ffaf54"/></linearGradient><linearGradient id="SVGID_18_" gradientUnits="userSpaceOnUse" x1="112.267" x2="132.079" xlink:href="#lg4" y1=".555" y2="-17.798"/><linearGradient id="lg5"><stop offset="0" stop-color="#947e7f"/><stop offset="1" stop-color="#373638"/></linearGradient><linearGradient id="SVGID_19_" gradientUnits="userSpaceOnUse" x1="77.845" x2="76.719" xlink:href="#lg5" y1="26.299" y2="81.858"/><linearGradient id="SVGID_20_" gradientUnits="userSpaceOnUse" x1="77.923" x2="76.423" xlink:href="#lg5" y1="12.453" y2="86.453"/><linearGradient id="SVGID_21_" gradientUnits="userSpaceOnUse" x1="51.853" x2="50.727" xlink:href="#lg5" y1="25.904" y2="81.463"/><linearGradient id="SVGID_22_" gradientUnits="userSpaceOnUse" x1="51.934" x2="50.434" xlink:href="#lg5" y1="11.926" y2="85.926"/><linearGradient id="SVGID_23_" gradientUnits="userSpaceOnUse" x1="64" x2="64" xlink:href="#lg3" y1="-108.333" y2="43.376"/><g><path d="m17 107s-8 5-13 19h19l1-19z" fill="url(#SVGID_1_)"/><path d="m111 107s8 5 13 19h-19l-1-19z" fill="url(#SVGID_2_)"/><path d="m76 99c-2.59 1.775-6.834 2.996-12 3-5.166-.004-9.41-1.225-12-3-7.561.971-27 3-35 8l5 19h83l6-19c-8-5-27.439-7.029-35-8z" fill="url(#SVGID_3_)"/><path d="m52 88h24v21h-24z" fill="url(#SVGID_4_)"/><path d="m100 64.857c0 4.418-3.134 9.143-7 9.143s-7-4.725-7-9.143 3.134-6.857 7-6.857 7 2.439 7 6.857z" fill="url(#SVGID_5_)"/><path d="m42 64.857c0 4.418-3.134 9.143-7 9.143s-7-4.725-7-9.143 3.134-6.857 7-6.857 7 2.439 7 6.857z" fill="url(#SVGID_6_)"/><path d="m89 44h-50c-2.238.543-4 2.697-4 5v16.007c0 16.993 13 29.993 29 29.993s29-13 29-29.993v-16.007c0-2.31-1.753-4.463-4-5z" fill="url(#SVGID_7_)"/><path d="m37.099 39.969c-2.485 2.742-4.099 6.268-4.099 10.029 0 7.309 2 15.002 2 15.002 1.241-6.824 3-14 8-17.886 2.162-1.68 4.312-3.52 7-3 4.166.806 9.213 2.036 14 2 4.787.036 9.821-1.124 13.987-1.93 2.688-.52 5.415.707 7.013 2.93 2.809 3.906 6.759 11.062 8 17.886 0 0 2-7.693 2-15.002 0-3.76-1.614-7.286-4.098-10.028-16.995-5.316-37.579-5.27-53.803-.001z" fill="url(#SVGID_8_)"/><path d="m60 108h8v18h-8z" fill="url(#SVGID_9_)"/><path d="m46 103c0 5.203 4.944 12.959 6 14l12-9c-9.561-1.051-12.004-9.919-12.004-12 0 0-5.996.67-5.996 7z" fill="url(#SVGID_10_)"/><path d="m82 103c0 5.203-4.944 12.959-6 14l-12-9c9.561-1.051 12.004-9.919 12.004-12 0 0 5.996.67 5.996 7z" fill="url(#SVGID_11_)"/><circle cx="64" cy="114" fill="url(#SVGID_12_)" r="1"/><circle cx="64" cy="118" fill="url(#SVGID_13_)" r="1"/><circle cx="64" cy="122" fill="url(#SVGID_14_)" r="1"/><path d="m64 4c-18.214 0-32.979 14.765-32.979 32.979v2.021h65.957v-2.021c.001-18.214-14.764-32.979-32.978-32.979z" fill="url(#SVGID_15_)"/><path d="m97 45h-66c-1.657 0-3-1.343-3-3 0-1.657 1.343-3 3-3h66c1.657 0 3 1.343 3 3 0 1.657-1.343 3-3 3z" fill="url(#SVGID_16_)"/><path d="m76.008 4c-1.49-.936-5.613-1.999-11.992-2h-.008-.008-.008c-6.379.001-10.502 1.064-11.992 2-.582.366-1.906 1.553 0 5 3.517 6.361 6 11.761 6 19v11h12.008v-11c0-7.239 2.483-12.639 6-19 1.906-3.447.582-4.634 0-5z" fill="url(#SVGID_17_)"/><path d="m85 51h-42c-3.867 0-8.01-2.898-10-6h62c-1.99 3.102-6.133 6-10 6z" fill="url(#SVGID_18_)"/><ellipse cx="77" cy="68.003" fill="url(#SVGID_19_)" rx="3" ry="3.003"/><path d="m71.001 58.996c-.334 0-.66-.167-.85-.471-.292-.469-.149-1.085.32-1.377 6.633-4.132 11.162-1.219 12.867-.122l.196.126c.467.295.605.913.31 1.379-.294.466-.914.606-1.379.31l-.209-.134c-1.546-.995-5.168-3.325-10.728.138-.164.102-.346.151-.527.151z" fill="url(#SVGID_20_)"/><ellipse cx="51" cy="68.003" fill="url(#SVGID_21_)" rx="3" ry="3.003"/><path d="m56.999 58.996c-.181 0-.363-.049-.528-.151-5.559-3.462-9.181-1.133-10.728-.138l-.209.134c-.466.296-1.085.155-1.379-.31-.295-.466-.157-1.084.31-1.379l.196-.126c1.705-1.097 6.233-4.009 12.867.122.469.292.612.909.32 1.377-.189.304-.515.471-.849.471z" fill="url(#SVGID_22_)"/><path d="m64 82c1.417 1.585 4.155 2.003 7 2.003 7 0 10-6 10-6-5.813.688-6.8-.019-10-2-2.67-1.653-4.773-1.229-7 .997-2.227-2.227-4.33-2.656-7-1.003-3.2 1.981-4.188 2.688-10 2 0 0 3 6 10 6 2.845 0 5.583-.412 7-1.997z" fill="url(#SVGID_23_)"/></g></svg>